<svg xmlns="http://www.w3.org/2000/svg" viewBox="0 0 64 64" fill="none">
  <rect width="64" height="64" rx="8" fill="#0a0a0a"/>
  <!-- ears -->
  <path d="M14 22 L22 6 L30 20 Z" fill="#C68642"/>
  <path d="M34 20 L42 6 L50 22 Z" fill="#C68642"/>
  <path d="M16 20 L22 10 L28 19 Z" fill="#E8A85C"/>
  <path d="M36 19 L42 10 L48 20 Z" fill="#E8A85C"/>
  <!-- face -->
  <ellipse cx="32" cy="36" rx="22" ry="20" fill="#E8A85C"/>
  <ellipse cx="32" cy="40" rx="14" ry="11" fill="#F5D5A8"/>
  <!-- sunglasses -->
  <rect x="14" y="30" width="14" height="9" rx="2" fill="#111"/>
  <rect x="36" y="30" width="14" height="9" rx="2" fill="#111"/>
  <rect x="27" y="33" width="10" height="3" fill="#111"/>
  <rect x="15" y="31" width="5" height="3" rx="1" fill="rgba(255,255,255,0.15)"/>
  <rect x="44" y="31" width="5" height="3" rx="1" fill="rgba(255,255,255,0.15)"/>
  <!-- nose & mouth -->
  <ellipse cx="32" cy="44" rx="4" ry="3" fill="#2d2d2d"/>
  <path d="M32 47 Q28 51 24 49" stroke="#2d2d2d" stroke-width="1.5" stroke-linecap="round" fill="none"/>
  <path d="M32 47 Q36 51 40 49" stroke="#2d2d2d" stroke-width="1.5" stroke-linecap="round" fill="none"/>
</svg>