<svg xmlns="http://www.w3.org/2000/svg" viewBox="0 0 64 64" fill="none">
  <rect width="64" height="64" rx="10" fill="#111318"/>
  <ellipse cx="32" cy="36" rx="15" ry="17" fill="#ffa657"/>
  <line x1="23" y1="14" x2="21" y2="4" stroke="#ffa657" stroke-width="2.5" stroke-linecap="round"/><circle cx="21" cy="4" r="3" fill="#ffa657"/><line x1="41" y1="14" x2="43" y2="6" stroke="#ffa657" stroke-width="2.5" stroke-linecap="round"/><circle cx="43" cy="6" r="2.5" fill="#fff" opacity="0.8"/><path d="M24 51 Q20 63 18 69" stroke="#ffa657" stroke-width="2.5" fill="none" stroke-linecap="round"/><path d="M32 51 Q32 63 32 69" stroke="#ffa657" stroke-width="2.5" fill="none" stroke-linecap="round"/><path d="M40 51 Q44 63 46 69" stroke="#ffa657" stroke-width="2.5" fill="none" stroke-linecap="round"/>
  <ellipse cx="25" cy="32" rx="5" ry="7" fill="#111"/><ellipse cx="25" cy="32" rx="2" ry="4" fill="#fff"/><ellipse cx="39" cy="32" rx="5" ry="7" fill="#111"/><ellipse cx="39" cy="32" rx="2" ry="4" fill="#fff"/>
  <path d="M27 44 Q32 50 37 44" stroke="#111" stroke-width="2" fill="none"/>
</svg>