<svg xmlns="http://www.w3.org/2000/svg" viewBox="0 0 32 32" role="img" aria-label="Jira">
  <defs>
    <linearGradient id="jira-g" x1="7" y1="27" x2="25" y2="5" gradientUnits="userSpaceOnUse">
      <stop stop-color="#0C66E4"/>
      <stop offset="1" stop-color="#579DFF"/>
    </linearGradient>
  </defs>
  <path fill="url(#jira-g)" d="M28.1 15.1 16.9 3.9a1.3 1.3 0 0 0-1.8 0L3.9 15.1a1.3 1.3 0 0 0 0 1.8l11.2 11.2a1.3 1.3 0 0 0 1.8 0l11.2-11.2a1.3 1.3 0 0 0 0-1.8ZM16 20.7 11.3 16l4.7-4.7 4.7 4.7-4.7 4.7Z"/>
  <path fill="#B8D7FF" d="m16 11.3 4.7 4.7H16a4.7 4.7 0 0 1 0-4.7Z" opacity=".9"/>
</svg>
