<svg xmlns="http://www.w3.org/2000/svg" viewBox="0 0 24 24" fill="#00C7B7">
  <path d="M12 2.1 9.7 4.4l1.4 1.4L12 4.9l.9.9 1.4-1.4L12 2.1zm4.9 2.6-1.4 1.4 1.9 1.9 1.4-1.4-1.9-1.9zM7.1 4.7 5.2 6.6l1.4 1.4 1.9-1.9-1.4-1.4zM19.3 9.1l-1.4 1.4.9.9-.9.9 1.4 1.4L21.4 12l-2.1-2.9zM4.7 9.1 2.6 12l2.1 2.9 1.4-1.4-.9-.9.9-.9-1.4-1.4zM16.9 13.7l-1.4 1.4 1.9 1.9 1.4-1.4-1.9-1.9zM8.5 13.7l-1.9 1.9 1.4 1.4 1.9-1.9-1.4-1.4zM12 15.1l-.9.9-1.4 1.4L12 21.9l2.3-2.3-1.4-1.4-.9-.9z"/>
  <path d="M12 7.2 9.4 9.8 12 12.4l2.6-2.6L12 7.2z"/>
</svg>
