<svg xmlns="http://www.w3.org/2000/svg" viewBox="0 0 24 24" role="img" aria-label="Reddit">
  <circle cx="12" cy="12" r="11" fill="#FF4500"/>
  <path d="M18.9 10.3c-.6 0-1.1.2-1.5.6-1.3-.9-3-1.4-4.9-1.5l.7-3.1 2.2.5a1.7 1.7 0 1 0 .3-1.1l-2.8-.6a.6.6 0 0 0-.7.4l-.9 3.9c-1.9.1-3.6.6-4.9 1.5a2.1 2.1 0 1 0-1 3.7v.4c0 3.1 3 5.6 6.6 5.6s6.6-2.5 6.6-5.6v-.4a2.1 2.1 0 0 0 .3-4.3Z" fill="#fff"/>
  <circle cx="9" cy="14.1" r="1.15" fill="#FF4500"/>
  <circle cx="15" cy="14.1" r="1.15" fill="#FF4500"/>
  <path d="M8.7 17.1c.9.8 2 1.1 3.3 1.1s2.4-.3 3.3-1.1" fill="none" stroke="#FF4500" stroke-width="1.1" stroke-linecap="round"/>
  <circle cx="17.1" cy="5.2" r=".75" fill="#fff"/>
</svg>
